<svg t="1699359333156" class="icon" viewBox="0 0 1024 1024" version="1.1" xmlns="http://www.w3.org/2000/svg" p-id="36713" width="200" height="200"><path d="M345.234286 988.891429c-125.805714 0-217.965714-65.828571-258.925715-121.417143-58.514286-78.994286-71.68-153.6-73.142857-160.914286-17.554286-99.474286 14.628571-191.634286 23.405715-209.188571 26.331429-55.588571 64.365714-102.4 111.177142-138.971429 20.48-16.091429 43.885714-30.72 67.291429-42.422857 42.422857-16.091429 86.308571-26.331429 131.657143-26.331429 35.108571-1.462857 67.291429 2.925714 100.937143 10.24 7.314286 1.462857 11.702857 7.314286 11.702857 14.628572l-1.462857 196.022857c0 4.388571-1.462857 8.777143-5.851429 11.702857-2.925714 2.925714-7.314286 4.388571-11.702857 2.925714-29.257143-5.851429-52.662857-8.777143-71.68-8.777143-40.96 0-73.142857 13.165714-102.4 40.96-46.811429 51.2-26.331429 119.954286-17.554286 141.897143 13.165714 23.405714 23.405714 30.72 40.96 42.422857l1.462857 1.462858c19.017143 8.777143 40.96 13.165714 61.44 13.165714 52.662857 0 93.622857-29.257143 111.177143-81.92 2.925714-16.091429 5.851429-38.034286 4.388572-55.588572V51.2c0-8.777143 5.851429-14.628571 14.628571-14.628571h520.777143c8.777143 0 14.628571 5.851429 14.628571 14.628571v152.137143c0 4.388571-1.462857 7.314286-4.388571 10.24s-5.851429 4.388571-10.24 4.388571H691.931429v140.434286h311.588571c4.388571 0 7.314286 1.462857 10.24 4.388571 2.925714 2.925714 4.388571 5.851429 4.388571 10.24v152.137143c0 4.388571-1.462857 7.314286-4.388571 10.24s-5.851429 4.388571-10.24 4.388572H691.931429v62.902857c1.462857 61.44 1.462857 109.714286-30.72 182.857143-38.034286 86.308571-130.194286 162.377143-193.097143 182.857143-42.422857 13.165714-81.92 20.48-122.88 20.48z m11.702857-669.988572h-10.24c-40.96 1.462857-81.92 8.777143-119.954286 24.868572-21.942857 10.24-42.422857 23.405714-61.44 38.034285-43.885714 33.645714-77.531429 77.531429-102.4 128.731429-7.314286 13.165714-36.571429 98.011429-20.48 191.634286 4.388571 27.794286 24.868571 89.234286 68.754286 149.211428 39.497143 54.125714 127.268571 109.714286 235.52 109.714286 36.571429 0 74.605714-5.851429 111.177143-19.017143 57.051429-19.017143 141.897143-90.697143 175.542857-166.765714 29.257143-67.291429 29.257143-111.177143 27.794286-171.154286v-78.994286c0-4.388571 1.462857-7.314286 4.388571-10.24 2.925714-2.925714 5.851429-4.388571 10.24-4.388571h311.588571v-122.88H675.84c-8.777143 0-14.628571-5.851429-14.628571-14.628572V201.874286c0-4.388571 1.462857-7.314286 4.388571-10.24 2.925714-2.925714 5.851429-4.388571 10.24-4.388572h311.588571V64.365714H495.908571v552.96c0 20.48-1.462857 43.885714-5.851428 62.902857v1.462858c-21.942857 64.365714-73.142857 102.4-138.971429 102.4-24.868571 0-51.2-5.851429-74.605714-16.091429-1.462857 0-1.462857-1.462857-2.925714-1.462857l-2.925715-1.462857c-19.017143-13.165714-33.645714-23.405714-49.737142-54.125715v-1.462857c-7.314286-17.554286-38.034286-105.325714 23.405714-174.08 35.108571-33.645714 74.605714-49.737143 124.342857-49.737143 17.554286 0 38.034286 1.462857 59.977143 5.851429l1.462857-166.765714c-24.868571-4.388571-49.737143-5.851429-73.142857-5.851429z" fill="#1296db" p-id="36714"></path></svg>